<svg width="2352" height="2352" xmlns="http://www.w3.org/2000/svg" xmlns:xlink="http://www.w3.org/1999/xlink" xml:space="preserve" overflow="hidden"><defs><filter id="fx0" x="-10%" y="-10%" width="120%" height="120%" filterUnits="userSpaceOnUse" primitiveUnits="userSpaceOnUse"><feComponentTransfer color-interpolation-filters="sRGB"><feFuncR type="discrete" tableValues="0 0"/><feFuncG type="discrete" tableValues="0 0"/><feFuncB type="discrete" tableValues="0 0"/><feFuncA type="linear" slope="0.4" intercept="0"/></feComponentTransfer><feGaussianBlur stdDeviation="6.11111 6.11111"/></filter><filter id="fx1" x="-10%" y="-10%" width="120%" height="120%" filterUnits="userSpaceOnUse" primitiveUnits="userSpaceOnUse"><feComponentTransfer color-interpolation-filters="sRGB"><feFuncR type="discrete" tableValues="0 0"/><feFuncG type="discrete" tableValues="0 0"/><feFuncB type="discrete" tableValues="0 0"/><feFuncA type="linear" slope="0.4" intercept="0"/></feComponentTransfer><feGaussianBlur stdDeviation="6.11111 6.11111"/></filter><filter id="fx2" x="-10%" y="-10%" width="120%" height="120%" filterUnits="userSpaceOnUse" primitiveUnits="userSpaceOnUse"><feComponentTransfer color-interpolation-filters="sRGB"><feFuncR type="discrete" tableValues="0 0"/><feFuncG type="discrete" tableValues="0 0"/><feFuncB type="discrete" tableValues="0 0"/><feFuncA type="linear" slope="0.4" intercept="0"/></feComponentTransfer><feGaussianBlur stdDeviation="6.11111 6.11111"/></filter><filter id="fx3" x="-10%" y="-10%" width="120%" height="120%" filterUnits="userSpaceOnUse" primitiveUnits="userSpaceOnUse"><feComponentTransfer color-interpolation-filters="sRGB"><feFuncR type="discrete" tableValues="0 0"/><feFuncG type="discrete" tableValues="0 0"/><feFuncB type="discrete" tableValues="0 0"/><feFuncA type="linear" slope="0.4" intercept="0"/></feComponentTransfer><feGaussianBlur stdDeviation="6.11111 6.11111"/></filter><filter id="fx4" x="-10%" y="-10%" width="120%" height="120%" filterUnits="userSpaceOnUse" primitiveUnits="userSpaceOnUse"><feComponentTransfer color-interpolation-filters="sRGB"><feFuncR type="discrete" tableValues="0 0"/><feFuncG type="discrete" tableValues="0 0"/><feFuncB type="discrete" tableValues="0 0"/><feFuncA type="linear" slope="0.4" intercept="0"/></feComponentTransfer><feGaussianBlur stdDeviation="6.11111 6.11111"/></filter><filter id="fx5" x="-10%" y="-10%" width="120%" height="120%" filterUnits="userSpaceOnUse" primitiveUnits="userSpaceOnUse"><feComponentTransfer color-interpolation-filters="sRGB"><feFuncR type="discrete" tableValues="0 0"/><feFuncG type="discrete" tableValues="0 0"/><feFuncB type="discrete" tableValues="0 0"/><feFuncA type="linear" slope="0.4" intercept="0"/></feComponentTransfer><feGaussianBlur stdDeviation="4.43154 4.43154"/></filter><filter id="fx6" x="-10%" y="-10%" width="120%" height="120%" filterUnits="userSpaceOnUse" primitiveUnits="userSpaceOnUse"><feComponentTransfer color-interpolation-filters="sRGB"><feFuncR type="discrete" tableValues="0 0"/><feFuncG type="discrete" tableValues="0 0"/><feFuncB type="discrete" tableValues="0 0"/><feFuncA type="linear" slope="0.4" intercept="0"/></feComponentTransfer><feGaussianBlur stdDeviation="4.43154 4.43154"/></filter><filter id="fx7" x="-10%" y="-10%" width="120%" height="120%" filterUnits="userSpaceOnUse" primitiveUnits="userSpaceOnUse"><feComponentTransfer color-interpolation-filters="sRGB"><feFuncR type="discrete" tableValues="0 0"/><feFuncG type="discrete" tableValues="0 0"/><feFuncB type="discrete" tableValues="0 0"/><feFuncA type="linear" slope="0.4" intercept="0"/></feComponentTransfer><feGaussianBlur stdDeviation="4.43154 4.43154"/></filter><filter id="fx8" x="-10%" y="-10%" width="120%" height="120%" filterUnits="userSpaceOnUse" primitiveUnits="userSpaceOnUse"><feComponentTransfer color-interpolation-filters="sRGB"><feFuncR type="discrete" tableValues="0 0"/><feFuncG type="discrete" tableValues="0 0"/><feFuncB type="discrete" tableValues="0 0"/><feFuncA type="linear" slope="0.541176" intercept="0"/></feComponentTransfer><feGaussianBlur stdDeviation="6.875 6.875"/></filter><filter id="fx9" x="-10%" y="-10%" width="120%" height="120%" filterUnits="userSpaceOnUse" primitiveUnits="userSpaceOnUse"><feComponentTransfer color-interpolation-filters="sRGB"><feFuncR type="discrete" tableValues="0 0"/><feFuncG type="discrete" tableValues="0 0"/><feFuncB type="discrete" tableValues="0 0"/><feFuncA type="linear" slope="0.541176" intercept="0"/></feComponentTransfer><feGaussianBlur stdDeviation="6.88383 6.875"/></filter><clipPath id="clip10"><path d="M808 438.5C626.022 438.5 478.5 587.142 478.5 770.5 478.5 953.858 626.022 1102.5 808 1102.5 989.978 1102.5 1137.5 953.858 1137.5 770.5 1137.5 587.142 989.978 438.5 808 438.5ZM-1.99995-1.99995 2350-1.99995 2350 2350-1.99995 2350Z" fill-rule="evenodd" clip-rule="evenodd"/></clipPath><clipPath id="clip11"><path d="M1530.5 438.5C1348.25 438.5 1200.5 587.142 1200.5 770.5 1200.5 953.858 1348.25 1102.5 1530.5 1102.5 1712.75 1102.5 1860.5 953.858 1860.5 770.5 1860.5 587.142 1712.75 438.5 1530.5 438.5ZM-1.99995-1.99995 2350-1.99995 2350 2350-1.99995 2350Z" fill-rule="evenodd" clip-rule="evenodd"/></clipPath><clipPath id="clip12"><rect x="0" y="0" width="390" height="392"/></clipPath></defs><g transform="translate(2 2)"><path d="M0.499836 250.079C0.499836 112.24 112.24 0.499836 250.079 0.499836L2097.92 0.499836C2235.76 0.499836 2347.5 112.24 2347.5 250.079L2347.5 2097.92C2347.5 2235.76 2235.76 2347.5 2097.92 2347.5L250.079 2347.5C112.24 2347.5 0.499836 2235.76 0.499836 2097.92Z" stroke="#F8D59D" stroke-width="4.58333" stroke-miterlimit="8" fill="#F8D59D" fill-rule="evenodd"/><g filter="url(#fx0)" transform="translate(124 102)"><g><path d="M26.7227 107.415C26.7227 62.8498 62.8498 26.7227 107.415 26.7227L2005.03 26.7227C2049.6 26.7227 2085.72 62.8498 2085.72 107.415L2085.72 2043.03C2085.72 2087.6 2049.6 2123.72 2005.03 2123.72L107.415 2123.72C62.8498 2123.72 26.7227 2087.6 26.7227 2043.03Z" stroke="#7F7F7F" stroke-width="14" stroke-miterlimit="8" fill="none" fill-rule="evenodd"/></g></g><path d="M141 199.692C141 155.127 177.127 119 221.692 119L2119.31 119C2163.87 119 2200 155.127 2200 199.692L2200 2135.31C2200 2179.87 2163.87 2216 2119.31 2216L221.692 2216C177.127 2216 141 2179.87 141 2135.31Z" stroke="#7F7F7F" stroke-width="13.75" stroke-miterlimit="8" fill="none" fill-rule="evenodd"/><g filter="url(#fx1)" transform="translate(792 115)"><g><path d="M26.7225 19.7229 26.7229 2116.01" stroke="#7F7F7F" stroke-width="14" stroke-miterlimit="8" fill="none" fill-rule="evenodd"/></g></g><path d="M809 125 809 2221.29" stroke="#7F7F7F" stroke-width="13.75" stroke-miterlimit="8" fill="none" fill-rule="evenodd"/><g filter="url(#fx2)" transform="translate(1513 109)"><g><path d="M26.7228 19.7227 26.7231 2116.01" stroke="#7F7F7F" stroke-width="14" stroke-miterlimit="8" fill="none" fill-rule="evenodd"/></g></g><path d="M1530 119 1530 2215.29" stroke="#7F7F7F" stroke-width="13.75" stroke-miterlimit="8" fill="none" fill-rule="evenodd"/><g filter="url(#fx3)" transform="translate(131 1510)"><g><path d="M19.7227 26.7227 2078.29 26.723" stroke="#7F7F7F" stroke-width="14" stroke-miterlimit="8" fill="none" fill-rule="evenodd"/></g></g><path d="M141 1527 2199.57 1527" stroke="#7F7F7F" stroke-width="13.75" stroke-miterlimit="8" fill="none" fill-rule="evenodd"/><g filter="url(#fx4)" transform="translate(131 801)"><g><path d="M19.7227 26.7228 2078.29 26.7232" stroke="#7F7F7F" stroke-width="14" stroke-miterlimit="8" fill="none" fill-rule="evenodd"/></g></g><path d="M141 818 2199.57 818" stroke="#7F7F7F" stroke-width="13.75" stroke-miterlimit="8" fill="none" fill-rule="evenodd"/><path d="M542.5 1658.33C542.5 1625.84 568.841 1599.5 601.335 1599.5L1724.67 1599.5C1757.16 1599.5 1783.5 1625.84 1783.5 1658.33L1783.5 1893.67C1783.5 1926.16 1757.16 1952.5 1724.67 1952.5L601.335 1952.5C568.841 1952.5 542.5 1926.16 542.5 1893.67Z" stroke="#FFFFFF" stroke-width="4.58333" stroke-miterlimit="8" fill="#FFFEFE" fill-rule="evenodd"/><g filter="url(#fx5)" transform="translate(662 1676)"><g><path d="M155.186 144.226 155.014 144.248 155.186 145.856ZM217.061 143.474 216.887 143.49 217.061 145.069ZM303.285 55.6029C304.526 55.6029 305.666 55.6737 306.704 55.8152 307.741 55.9568 308.663 56.2626 309.47 56.7325 310.276 57.2025 310.789 57.8302 311.01 58.6158 311.231 59.4013 311.306 59.9378 311.235 60.2254L291.907 158.342C291.678 159.027 291.346 159.679 290.913 160.298 290.48 160.917 289.842 161.396 288.998 161.732 288.155 162.069 287.268 162.315 286.34 162.47 285.411 162.625 284.22 162.703 282.768 162.703 281.333 162.703 280.13 162.614 279.157 162.437 278.185 162.261 277.329 161.987 276.588 161.617 275.848 161.248 275.332 160.634 275.041 159.778 274.749 158.921 274.697 158.06 274.884 157.195L294.171 60.1751C294.282 59.4656 294.566 58.7844 295.023 58.1315 295.48 57.4786 296.12 56.9602 296.942 56.5764 297.765 56.1926 298.705 55.9344 299.764 55.8018 300.822 55.6692 301.996 55.6029 303.285 55.6029ZM137.354 55.6029C138.66 55.6029 139.83 55.6703 140.865 55.8052 141.899 55.94 142.82 56.1935 143.627 56.5655 144.434 56.9376 145.009 57.468 145.353 58.1567 145.697 58.8454 145.904 59.4332 145.975 59.9199L154.384 138.365 190.82 59.6379C191.08 59.1187 191.403 58.5828 191.79 58.03 192.176 57.4772 192.708 57.0036 193.385 56.6092 194.062 56.2147 194.883 55.9484 195.849 55.8102 196.815 55.672 197.906 55.6029 199.122 55.6029 200.291 55.6029 201.362 55.6692 202.335 55.8018 203.307 55.9344 204.204 56.1769 205.027 56.5294 205.849 56.8819 206.472 57.4103 206.894 58.1147 207.316 58.8191 207.567 59.446 207.645 59.9955L216.411 139.189 218.823 135.263C220.615 132.263 222.399 129.112 224.176 125.808 227.728 119.201 231.19 112.218 234.564 104.862 237.937 97.505 241.132 90.0106 244.149 82.3787 247.167 74.7467 249.905 67.2783 252.363 59.9736 252.595 59.1624 252.986 58.451 253.536 57.8395 254.087 57.228 254.778 56.7661 255.611 56.4539 256.443 56.1417 257.39 55.9218 258.452 55.7943 259.513 55.6667 260.719 55.6029 262.071 55.6029 263.312 55.6029 264.401 55.6667 265.338 55.7943 266.275 55.9218 267.135 56.1162 267.918 56.3775 268.701 56.6388 269.283 57.1029 269.664 57.7698 270.045 58.4367 270.235 59.0751 270.235 59.6849 270.235 60.4996 270.151 61.2431 269.983 61.9156 269.816 62.5881 269.621 63.1806 269.401 63.6931 266.617 71.6782 263.563 79.727 260.239 87.8395 256.915 95.9521 253.244 104.081 249.227 112.226 245.209 120.371 240.9 128.331 236.3 136.105 231.7 143.879 226.674 151.528 221.222 159.054 220.661 159.814 219.981 160.444 219.185 160.941 218.388 161.438 217.56 161.816 216.702 162.074 215.844 162.332 214.932 162.501 213.965 162.582 212.999 162.662 211.954 162.703 210.831 162.703 209.434 162.703 208.253 162.645 207.287 162.529 206.321 162.413 205.415 162.196 204.569 161.878 203.723 161.561 203.015 161.046 202.446 160.336 201.877 159.625 201.593 158.845 201.593 157.996L194.065 82.5658 161.739 157.699C161.179 158.895 160.53 159.809 159.793 160.441 159.056 161.072 158.231 161.548 157.319 161.867 156.406 162.187 155.416 162.406 154.346 162.525 153.277 162.643 152.053 162.703 150.675 162.703 149.301 162.703 148.066 162.644 146.969 162.526 145.873 162.409 144.88 162.217 143.99 161.95 143.1 161.683 142.255 161.216 141.455 160.549 140.655 159.882 140.255 159.042 140.255 158.03L129.083 63.391C129.025 62.8651 128.974 62.3297 128.932 61.7847 128.889 61.2398 128.868 60.8263 128.868 60.5443 128.868 59.4186 129.158 58.4927 129.739 57.7665 130.32 57.0402 130.983 56.5443 131.727 56.2785 132.472 56.0127 133.33 55.8337 134.301 55.7414 135.273 55.6491 136.29 55.6029 137.354 55.6029ZM457.006 54.4213C459.609 54.4213 462.199 54.63 464.777 55.0473 467.354 55.4647 469.692 56.0046 471.792 56.6671 473.891 57.3295 475.842 58.1324 477.646 59.0757 479.45 60.019 480.786 60.9248 481.654 61.7931 482.911 62.9356 483.539 64.4887 483.539 66.4525 483.539 67.153 483.431 68.0443 483.214 69.1263 482.998 70.2084 482.677 71.2395 482.251 72.2197 481.825 73.2 481.239 74.1489 480.494 75.0664 479.748 75.984 478.758 76.4428 477.524 76.4428 476.228 76.4428 474.98 76.0562 473.781 75.2829 472.582 74.5097 471.155 73.6828 469.5 72.8022 467.844 71.9215 465.888 71.1444 463.632 70.4708 461.375 69.7971 458.701 69.4603 455.61 69.4603 452.382 69.4603 449.556 69.9233 447.129 70.8493 444.703 71.7752 442.679 73.017 441.057 74.5746 439.436 76.1322 438.215 77.9041 437.396 79.8903 436.576 81.8765 436.166 83.9142 436.166 86.0033 436.166 88.6284 437 90.8521 438.668 92.6744 440.336 94.4966 442.589 96.1866 445.427 97.7442 448.265 99.3018 451.384 100.832 454.782 102.334 458.18 103.836 461.436 105.688 464.548 107.89 467.661 110.091 470.279 112.785 472.403 115.971 474.528 119.158 475.59 123.169 475.59 128.005 475.59 133.174 474.577 137.956 472.55 142.353 470.524 146.749 467.618 150.554 463.832 153.766 460.045 156.979 455.541 159.468 450.317 161.235 445.094 163.001 439.303 163.884 432.944 163.884 429.502 163.884 426.263 163.603 423.228 163.042 420.193 162.48 417.435 161.786 414.956 160.959 412.477 160.133 410.315 159.182 408.471 158.105 406.626 157.029 405.174 155.961 404.114 154.901 403.372 154.159 402.818 153.369 402.45 152.529 402.082 151.69 401.899 150.713 401.899 149.597 401.899 148.867 401.937 148.155 402.014 147.459 402.092 146.763 402.226 146.069 402.419 145.377 402.611 144.684 402.844 143.976 403.116 143.251 403.387 142.526 403.714 141.853 404.095 141.234 404.476 140.615 404.977 140.063 405.599 139.58 406.22 139.097 406.956 138.855 407.807 138.855 409.199 138.855 410.606 139.441 412.028 140.612 413.45 141.784 415.061 142.909 416.859 143.988 418.657 145.068 420.96 146.075 423.769 147.011 426.578 147.947 430.101 148.415 434.34 148.415 438.57 148.415 442.154 147.91 445.092 146.898 448.031 145.887 450.448 144.545 452.343 142.875 454.239 141.204 455.633 139.284 456.526 137.115 457.419 134.946 457.865 132.661 457.865 130.261 457.865 127.543 457.033 125.29 455.367 123.501 453.701 121.712 451.463 120.029 448.651 118.451 445.839 116.874 442.712 115.324 439.271 113.803 435.83 112.282 432.557 110.442 429.452 108.284 426.347 106.126 423.736 103.459 421.618 100.282 419.5 97.1052 418.442 93.026 418.442 88.0443 418.442 83.1208 419.396 78.5971 421.306 74.4731 423.215 70.3491 425.896 66.7913 429.348 63.7997 432.8 60.8081 436.896 58.4972 441.635 56.8668 446.375 55.2365 451.498 54.4213 457.006 54.4213ZM371.641 54.4213C374.244 54.4213 376.834 54.63 379.412 55.0473 381.989 55.4647 384.328 56.0046 386.427 56.6671 388.526 57.3295 390.478 58.1324 392.282 59.0757 394.085 60.019 395.421 60.9248 396.29 61.7931 397.546 62.9356 398.175 64.4887 398.175 66.4525 398.175 67.153 398.066 68.0443 397.85 69.1263 397.633 70.2084 397.312 71.2395 396.886 72.2197 396.461 73.2 395.875 74.1489 395.129 75.0664 394.383 75.984 393.393 76.4428 392.159 76.4428 390.863 76.4428 389.616 76.0562 388.417 75.2829 387.218 74.5097 385.791 73.6828 384.135 72.8022 382.48 71.9215 380.524 71.1444 378.267 70.4708 376.011 69.7971 373.337 69.4603 370.245 69.4603 367.018 69.4603 364.191 69.9233 361.764 70.8493 359.338 71.7752 357.314 73.017 355.693 74.5746 354.071 76.1322 352.851 77.9041 352.031 79.8903 351.211 81.8765 350.802 83.9142 350.802 86.0033 350.802 88.6284 351.636 90.8521 353.303 92.6744 354.971 94.4966 357.224 96.1866 360.063 97.7442 362.901 99.3018 366.019 100.832 369.417 102.334 372.816 103.836 376.071 105.688 379.184 107.89 382.296 110.091 384.914 112.785 387.039 115.971 389.163 119.158 390.225 123.169 390.225 128.005 390.225 133.174 389.212 137.956 387.186 142.353 385.159 146.749 382.253 150.554 378.467 153.766 374.681 156.979 370.176 159.468 364.953 161.235 359.729 163.001 353.938 163.884 347.579 163.884 344.137 163.884 340.898 163.603 337.863 163.042 334.828 162.48 332.071 161.786 329.592 160.959 327.113 160.133 324.951 159.182 323.106 158.105 321.261 157.029 319.809 155.961 318.75 154.901 318.008 154.159 317.453 153.369 317.085 152.529 316.718 151.69 316.534 150.713 316.534 149.597 316.534 148.867 316.573 148.155 316.65 147.459 316.727 146.763 316.862 146.069 317.054 145.377 317.247 144.684 317.479 143.976 317.751 143.251 318.023 142.526 318.349 141.853 318.73 141.234 319.111 140.615 319.613 140.063 320.234 139.58 320.856 139.097 321.592 138.855 322.442 138.855 323.834 138.855 325.241 139.441 326.664 140.612 328.086 141.784 329.696 142.909 331.494 143.988 333.292 145.068 335.596 146.075 338.404 147.011 341.213 147.947 344.737 148.415 348.975 148.415 353.205 148.415 356.789 147.91 359.728 146.898 362.666 145.887 365.083 144.545 366.979 142.875 368.874 141.204 370.268 139.284 371.161 137.115 372.054 134.946 372.501 132.661 372.501 130.261 372.501 127.543 371.668 125.29 370.002 123.501 368.337 121.712 366.098 120.029 363.286 118.451 360.474 116.874 357.348 115.324 353.907 113.803 350.466 112.282 347.193 110.442 344.088 108.284 340.983 106.126 338.371 103.459 336.254 100.282 334.136 97.1052 333.077 93.026 333.077 88.0443 333.077 83.1208 334.032 78.5971 335.941 74.4731 337.851 70.3491 340.532 66.7913 343.984 63.7997 347.436 60.8081 351.531 58.4972 356.271 56.8668 361.01 55.2365 366.134 54.4213 371.641 54.4213ZM311.02 16.931C312.831 16.931 314.432 17.1294 315.821 17.5261 317.21 17.9227 318.288 18.6683 319.054 19.7626 319.82 20.857 320.226 22.1167 320.271 23.5417 320.317 24.9667 320.17 26.4357 319.828 27.9485 319.491 29.9548 319.046 31.6201 318.491 32.9445 317.936 34.2688 317.121 35.3947 316.048 36.3224 314.974 37.25 313.754 37.8845 312.389 38.2257 311.024 38.567 309.386 38.7377 307.475 38.7377 305.587 38.7377 303.96 38.5494 302.594 38.1729 301.228 37.7963 300.181 37.0768 299.454 36.0144 298.727 34.9519 298.343 33.6987 298.3 32.2546 298.258 30.8106 298.38 29.3383 298.666 27.8377 299.087 25.752 299.59 24.0609 300.175 22.7646 300.76 21.4682 301.548 20.3495 302.537 19.4085 303.526 18.4674 304.73 17.8192 306.15 17.464 307.57 17.1087 309.194 16.931 311.02 16.931ZM85.577 16.931C88.9631 16.931 92.2828 17.2374 95.5362 17.85 98.7896 18.4626 101.679 19.1959 104.203 20.0496 106.727 20.9034 108.919 21.8531 110.778 22.8988 112.638 23.9445 113.979 24.8568 114.802 25.6356 115.626 26.4144 116.243 27.2643 116.652 28.1852 117.062 29.1061 117.266 30.1887 117.266 31.433 117.266 31.9254 117.221 32.5366 117.129 33.2667 117.037 33.9969 116.914 34.6915 116.759 35.3505 116.604 36.0096 116.4 36.6978 116.147 37.415 115.894 38.1323 115.543 38.8149 115.094 39.4628 114.644 40.1107 114.07 40.6889 113.372 41.1975 112.673 41.706 111.823 41.9603 110.821 41.9603 109.637 41.9603 108.306 41.4546 106.827 40.443 105.349 39.4314 103.576 38.4087 101.509 37.3748 99.4423 36.3408 96.9528 35.3785 94.0407 34.4878 91.1286 33.5971 87.7702 33.1517 83.9657 33.1517 79.6543 33.1517 75.8131 33.836 72.4422 35.2045 69.0713 36.573 66.266 38.3933 64.0264 40.6654 61.7867 42.9375 60.0741 45.5718 58.8886 48.5685 57.703 51.5651 57.1102 54.6977 57.1102 57.9662 57.1102 61.0904 57.7497 63.8039 59.0287 66.1068 60.3077 68.4096 62.0335 70.5301 64.2059 72.4681 66.3784 74.4062 69.1048 76.7191 72.3851 79.4069 75.6654 82.0947 78.6858 83.9105 81.4463 84.8544 84.2068 85.7983 87.1537 87.3332 90.2868 89.4593 93.4199 91.5853 96.2193 94.0706 98.685 96.915 101.151 99.7595 103.145 103.029 104.669 106.723 106.192 110.417 106.954 114.683 106.954 119.519 106.954 125.547 105.705 131.267 103.208 136.678 100.71 142.089 97.1531 146.803 92.5368 150.819 87.9204 154.835 82.3714 158.017 75.8898 160.364 69.4081 162.711 62.1456 163.884 54.1024 163.884 49.7675 163.884 45.7039 163.498 41.9117 162.724 38.1195 161.951 34.6742 160.986 31.5757 159.829 28.4773 158.672 25.8194 157.463 23.6022 156.201 21.3849 154.939 19.7014 153.734 18.5517 152.584 17.4019 151.434 16.827 149.758 16.827 147.556 16.827 147.041 16.8645 146.466 16.9395 145.83 17.0145 145.194 17.158 144.472 17.37 143.666 17.5821 142.86 17.8025 142.113 18.0313 141.426 18.2602 140.739 18.6037 140.014 19.0619 139.251 19.5201 138.488 20.1079 137.837 20.8251 137.299 21.5424 136.761 22.3939 136.492 23.3798 136.492 24.9475 136.492 26.6936 137.12 28.6183 138.376 30.5429 139.633 32.7585 140.923 35.265 142.245 37.7715 143.568 40.6674 144.766 43.9527 145.839 47.238 146.912 51.1584 147.449 55.7138 147.449 60.9103 147.449 65.5512 146.706 69.6366 145.22 73.722 143.735 77.1514 141.738 79.9248 139.229 82.6982 136.72 84.8349 133.799 86.3349 130.465 87.8348 127.131 88.5848 123.59 88.5848 119.841 88.5848 116.739 87.9339 114.001 86.6319 111.626 85.33 109.251 83.623 107.106 81.5109 105.192 79.3989 103.277 76.8753 101.453 73.9402 99.7206 71.0051 97.9878 68.0144 96.2182 64.968 94.4116 61.9216 92.605 58.8379 90.6303 55.7171 88.4874 52.5963 86.3446 49.8151 83.8426 47.3734 80.9813 44.9318 78.1201 42.9543 74.8541 41.4409 71.1833 39.9275 67.5125 39.1708 63.1784 39.1708 58.181 39.1708 52.7271 40.2324 47.5169 42.3557 42.5503 44.4789 37.5837 47.5332 33.2018 51.5184 29.4046 55.5037 25.6073 60.3771 22.5791 66.1387 20.3199 71.9003 18.0607 78.3798 16.931 85.577 16.931Z" stroke="#000000" stroke-width="3" stroke-linejoin="round" stroke-miterlimit="10" stroke-opacity="0" fill="#00B050" fill-rule="evenodd"/></g></g><path d="M824.257 1813.16 824.084 1813.18 824.257 1814.79ZM886.132 1812.4 885.957 1812.42 886.132 1814ZM972.356 1724.53C973.597 1724.53 974.736 1724.6 975.774 1724.74 976.812 1724.89 977.734 1725.19 978.54 1725.66 979.346 1726.13 979.86 1726.76 980.081 1727.55 980.302 1728.33 980.377 1728.87 980.305 1729.16L960.977 1827.27C960.748 1827.96 960.417 1828.61 959.984 1829.23 959.551 1829.85 958.912 1830.33 958.069 1830.66 957.225 1831 956.339 1831.24 955.41 1831.4 954.481 1831.55 953.291 1831.63 951.838 1831.63 950.404 1831.63 949.2 1831.54 948.228 1831.37 947.255 1831.19 946.399 1830.92 945.659 1830.55 944.919 1830.18 944.403 1829.56 944.111 1828.71 943.82 1827.85 943.768 1826.99 943.954 1826.13L963.242 1729.1C963.352 1728.4 963.636 1727.71 964.094 1727.06 964.551 1726.41 965.19 1725.89 966.013 1725.51 966.835 1725.12 967.776 1724.86 968.834 1724.73 969.893 1724.6 971.067 1724.53 972.356 1724.53ZM806.425 1724.53C807.731 1724.53 808.901 1724.6 809.935 1724.73 810.97 1724.87 811.89 1725.12 812.697 1725.5 813.504 1725.87 814.079 1726.4 814.424 1727.09 814.768 1727.78 814.975 1728.36 815.045 1728.85L823.454 1807.3 859.891 1728.57C860.15 1728.05 860.473 1727.51 860.86 1726.96 861.247 1726.41 861.778 1725.93 862.455 1725.54 863.132 1725.14 863.954 1724.88 864.919 1724.74 865.885 1724.6 866.976 1724.53 868.192 1724.53 869.362 1724.53 870.433 1724.6 871.405 1724.73 872.377 1724.86 873.275 1725.11 874.097 1725.46 874.92 1725.81 875.542 1726.34 875.964 1727.04 876.387 1727.75 876.637 1728.38 876.716 1728.93L885.481 1808.12 887.894 1804.19C889.686 1801.19 891.47 1798.04 893.246 1794.74 896.798 1788.13 900.261 1781.15 903.634 1773.79 907.007 1766.43 910.202 1758.94 913.22 1751.31 916.237 1743.68 918.975 1736.21 921.433 1728.9 921.665 1728.09 922.056 1727.38 922.607 1726.77 923.157 1726.16 923.849 1725.7 924.681 1725.38 925.514 1725.07 926.461 1724.85 927.522 1724.72 928.583 1724.6 929.79 1724.53 931.142 1724.53 932.383 1724.53 933.472 1724.6 934.409 1724.72 935.346 1724.85 936.206 1725.05 936.989 1725.31 937.771 1725.57 938.353 1726.03 938.734 1726.7 939.115 1727.37 939.306 1728 939.306 1728.61 939.306 1729.43 939.222 1730.17 939.054 1730.85 938.886 1731.52 938.692 1732.11 938.471 1732.62 935.687 1740.61 932.633 1748.66 929.31 1756.77 925.986 1764.88 922.315 1773.01 918.297 1781.16 914.279 1789.3 909.971 1797.26 905.37 1805.03 900.77 1812.81 895.744 1820.46 890.293 1827.98 889.731 1828.74 889.052 1829.37 888.255 1829.87 887.458 1830.37 886.631 1830.75 885.773 1831 884.914 1831.26 884.002 1831.43 883.036 1831.51 882.07 1831.59 881.025 1831.63 879.901 1831.63 878.505 1831.63 877.323 1831.57 876.357 1831.46 875.391 1831.34 874.485 1831.13 873.639 1830.81 872.793 1830.49 872.086 1829.98 871.517 1829.27 870.948 1828.56 870.663 1827.78 870.663 1826.93L863.135 1751.5 830.81 1826.63C830.249 1827.82 829.6 1828.74 828.863 1829.37 828.127 1830 827.302 1830.48 826.389 1830.8 825.477 1831.12 824.486 1831.34 823.417 1831.45 822.348 1831.57 821.124 1831.63 819.745 1831.63 818.371 1831.63 817.136 1831.57 816.04 1831.46 814.944 1831.34 813.951 1831.15 813.061 1830.88 812.17 1830.61 811.325 1830.15 810.525 1829.48 809.725 1828.81 809.325 1827.97 809.325 1826.96L798.153 1732.32C798.095 1731.79 798.045 1731.26 798.002 1730.71 797.96 1730.17 797.938 1729.76 797.938 1729.47 797.938 1728.35 798.229 1727.42 798.81 1726.7 799.39 1725.97 800.053 1725.47 800.798 1725.21 801.542 1724.94 802.4 1724.76 803.372 1724.67 804.343 1724.58 805.361 1724.53 806.425 1724.53ZM1126.08 1723.35C1128.68 1723.35 1131.27 1723.56 1133.85 1723.98 1136.42 1724.39 1138.76 1724.93 1140.86 1725.6 1142.96 1726.26 1144.91 1727.06 1146.72 1728.01 1148.52 1728.95 1149.86 1729.85 1150.72 1730.72 1151.98 1731.87 1152.61 1733.42 1152.61 1735.38 1152.61 1736.08 1152.5 1736.97 1152.28 1738.06 1152.07 1739.14 1151.75 1740.17 1151.32 1741.15 1150.9 1742.13 1150.31 1743.08 1149.56 1744 1148.82 1744.91 1147.83 1745.37 1146.59 1745.37 1145.3 1745.37 1144.05 1744.99 1142.85 1744.21 1141.65 1743.44 1140.23 1742.61 1138.57 1741.73 1136.91 1740.85 1134.96 1740.07 1132.7 1739.4 1130.45 1738.73 1127.77 1738.39 1124.68 1738.39 1121.45 1738.39 1118.63 1738.85 1116.2 1739.78 1113.77 1740.7 1111.75 1741.95 1110.13 1743.5 1108.51 1745.06 1107.29 1746.83 1106.47 1748.82 1105.65 1750.81 1105.24 1752.84 1105.24 1754.93 1105.24 1757.56 1106.07 1759.78 1107.74 1761.6 1109.41 1763.43 1111.66 1765.12 1114.5 1766.67 1117.34 1768.23 1120.45 1769.76 1123.85 1771.26 1127.25 1772.77 1130.51 1774.62 1133.62 1776.82 1136.73 1779.02 1139.35 1781.71 1141.47 1784.9 1143.6 1788.09 1144.66 1792.1 1144.66 1796.93 1144.66 1802.1 1143.65 1806.89 1141.62 1811.28 1139.59 1815.68 1136.69 1819.48 1132.9 1822.7 1129.12 1825.91 1124.61 1828.4 1119.39 1830.16 1114.16 1831.93 1108.37 1832.81 1102.01 1832.81 1098.57 1832.81 1095.33 1832.53 1092.3 1831.97 1089.26 1831.41 1086.51 1830.72 1084.03 1829.89 1081.55 1829.06 1079.39 1828.11 1077.54 1827.03 1075.7 1825.96 1074.24 1824.89 1073.18 1823.83 1072.44 1823.09 1071.89 1822.3 1071.52 1821.46 1071.15 1820.62 1070.97 1819.64 1070.97 1818.53 1070.97 1817.8 1071.01 1817.08 1071.08 1816.39 1071.16 1815.69 1071.3 1815 1071.49 1814.31 1071.68 1813.61 1071.91 1812.91 1072.19 1812.18 1072.46 1811.46 1072.78 1810.78 1073.17 1810.16 1073.55 1809.54 1074.05 1808.99 1074.67 1808.51 1075.29 1808.03 1076.03 1807.78 1076.88 1807.78 1078.27 1807.78 1079.68 1808.37 1081.1 1809.54 1082.52 1810.71 1084.13 1811.84 1085.93 1812.92 1087.73 1814 1090.03 1815.01 1092.84 1815.94 1095.65 1816.88 1099.17 1817.35 1103.41 1817.35 1107.64 1817.35 1111.22 1816.84 1114.16 1815.83 1117.1 1814.82 1119.52 1813.48 1121.41 1811.8 1123.31 1810.13 1124.7 1808.21 1125.6 1806.04 1126.49 1803.88 1126.94 1801.59 1126.94 1799.19 1126.94 1796.47 1126.1 1794.22 1124.44 1792.43 1122.77 1790.64 1120.53 1788.96 1117.72 1787.38 1114.91 1785.8 1111.78 1784.25 1108.34 1782.73 1104.9 1781.21 1101.63 1779.37 1098.52 1777.21 1095.42 1775.06 1092.81 1772.39 1090.69 1769.21 1088.57 1766.03 1087.51 1761.96 1087.51 1756.97 1087.51 1752.05 1088.47 1747.53 1090.38 1743.4 1092.29 1739.28 1094.97 1735.72 1098.42 1732.73 1101.87 1729.74 1105.97 1727.43 1110.71 1725.8 1115.45 1724.17 1120.57 1723.35 1126.08 1723.35ZM1040.71 1723.35C1043.31 1723.35 1045.9 1723.56 1048.48 1723.98 1051.06 1724.39 1053.4 1724.93 1055.5 1725.6 1057.6 1726.26 1059.55 1727.06 1061.35 1728.01 1063.16 1728.95 1064.49 1729.85 1065.36 1730.72 1066.62 1731.87 1067.25 1733.42 1067.25 1735.38 1067.25 1736.08 1067.14 1736.97 1066.92 1738.06 1066.7 1739.14 1066.38 1740.17 1065.96 1741.15 1065.53 1742.13 1064.95 1743.08 1064.2 1744 1063.45 1744.91 1062.46 1745.37 1061.23 1745.37 1059.93 1745.37 1058.69 1744.99 1057.49 1744.21 1056.29 1743.44 1054.86 1742.61 1053.21 1741.73 1051.55 1740.85 1049.59 1740.07 1047.34 1739.4 1045.08 1738.73 1042.41 1738.39 1039.32 1738.39 1036.09 1738.39 1033.26 1738.85 1030.83 1739.78 1028.41 1740.7 1026.38 1741.95 1024.76 1743.5 1023.14 1745.06 1021.92 1746.83 1021.1 1748.82 1020.28 1750.81 1019.87 1752.84 1019.87 1754.93 1019.87 1757.56 1020.71 1759.78 1022.37 1761.6 1024.04 1763.43 1026.29 1765.12 1029.13 1766.67 1031.97 1768.23 1035.09 1769.76 1038.49 1771.26 1041.89 1772.77 1045.14 1774.62 1048.25 1776.82 1051.37 1779.02 1053.98 1781.71 1056.11 1784.9 1058.23 1788.09 1059.3 1792.1 1059.3 1796.93 1059.3 1802.1 1058.28 1806.89 1056.26 1811.28 1054.23 1815.68 1051.32 1819.48 1047.54 1822.7 1043.75 1825.91 1039.25 1828.4 1034.02 1830.16 1028.8 1831.93 1023.01 1832.81 1016.65 1832.81 1013.21 1832.81 1009.97 1832.53 1006.93 1831.97 1003.9 1831.41 1001.14 1830.72 998.662 1829.89 996.183 1829.06 994.021 1828.11 992.177 1827.03 990.332 1825.96 988.88 1824.89 987.82 1823.83 987.078 1823.09 986.523 1822.3 986.156 1821.46 985.788 1820.62 985.604 1819.64 985.604 1818.53 985.604 1817.8 985.643 1817.08 985.72 1816.39 985.797 1815.69 985.932 1815 986.125 1814.31 986.317 1813.61 986.549 1812.91 986.821 1812.18 987.093 1811.46 987.42 1810.78 987.801 1810.16 988.182 1809.54 988.683 1808.99 989.305 1808.51 989.926 1808.03 990.662 1807.78 991.513 1807.78 992.905 1807.78 994.312 1808.37 995.734 1809.54 997.156 1810.71 998.766 1811.84 1000.56 1812.92 1002.36 1814 1004.67 1815.01 1007.47 1815.94 1010.28 1816.88 1013.81 1817.35 1018.05 1817.35 1022.28 1817.35 1025.86 1816.84 1028.8 1815.83 1031.74 1814.82 1034.15 1813.48 1036.05 1811.8 1037.94 1810.13 1039.34 1808.21 1040.23 1806.04 1041.12 1803.88 1041.57 1801.59 1041.57 1799.19 1041.57 1796.47 1040.74 1794.22 1039.07 1792.43 1037.41 1790.64 1035.17 1788.96 1032.36 1787.38 1029.54 1785.8 1026.42 1784.25 1022.98 1782.73 1019.54 1781.21 1016.26 1779.37 1013.16 1777.21 1010.05 1775.06 1007.44 1772.39 1005.32 1769.21 1003.21 1766.03 1002.15 1761.96 1002.15 1756.97 1002.15 1752.05 1003.1 1747.53 1005.01 1743.4 1006.92 1739.28 1009.6 1735.72 1013.05 1732.73 1016.51 1729.74 1020.6 1727.43 1025.34 1725.8 1030.08 1724.17 1035.2 1723.35 1040.71 1723.35ZM980.09 1685.86C981.902 1685.86 983.502 1686.06 984.891 1686.46 986.281 1686.85 987.358 1687.6 988.124 1688.69 988.89 1689.79 989.296 1691.05 989.342 1692.47 989.388 1693.9 989.24 1695.37 988.899 1696.88 988.562 1698.88 988.116 1700.55 987.561 1701.87 987.006 1703.2 986.192 1704.32 985.118 1705.25 984.044 1706.18 982.825 1706.81 981.46 1707.16 980.095 1707.5 978.456 1707.67 976.545 1707.67 974.657 1707.67 973.031 1707.48 971.664 1707.1 970.298 1706.73 969.251 1706.01 968.525 1704.94 967.798 1703.88 967.413 1702.63 967.371 1701.18 967.328 1699.74 967.45 1698.27 967.737 1696.77 968.157 1694.68 968.66 1692.99 969.246 1691.69 969.831 1690.4 970.618 1689.28 971.607 1688.34 972.596 1687.4 973.801 1686.75 975.221 1686.39 976.641 1686.04 978.264 1685.86 980.09 1685.86ZM754.647 1685.86C758.034 1685.86 761.353 1686.17 764.607 1686.78 767.86 1687.39 770.749 1688.13 773.273 1688.98 775.798 1689.83 777.99 1690.78 779.849 1691.83 781.708 1692.87 783.049 1693.79 783.873 1694.57 784.696 1695.34 785.313 1696.19 785.723 1697.11 786.132 1698.04 786.337 1699.12 786.337 1700.36 786.337 1700.85 786.291 1701.47 786.199 1702.2 786.108 1702.93 785.984 1703.62 785.829 1704.28 785.674 1704.94 785.47 1705.63 785.217 1706.34 784.964 1707.06 784.613 1707.74 784.164 1708.39 783.715 1709.04 783.141 1709.62 782.442 1710.13 781.743 1710.64 780.893 1710.89 779.892 1710.89 778.708 1710.89 777.376 1710.38 775.898 1709.37 774.419 1708.36 772.646 1707.34 770.579 1706.3 768.513 1705.27 766.023 1704.31 763.111 1703.42 760.199 1702.53 756.841 1702.08 753.036 1702.08 748.725 1702.08 744.884 1702.77 741.513 1704.13 738.142 1705.5 735.336 1707.32 733.097 1709.6 730.857 1711.87 729.145 1714.5 727.959 1717.5 726.773 1720.49 726.181 1723.63 726.181 1726.9 726.181 1730.02 726.82 1732.73 728.099 1735.04 729.378 1737.34 731.104 1739.46 733.276 1741.4 735.449 1743.34 738.175 1745.65 741.456 1748.34 744.736 1751.02 747.756 1752.84 750.517 1753.78 753.277 1754.73 756.224 1756.26 759.357 1758.39 762.49 1760.52 765.29 1763 767.755 1765.84 770.221 1768.69 772.216 1771.96 773.739 1775.65 775.263 1779.35 776.024 1783.61 776.024 1788.45 776.024 1794.48 774.776 1800.2 772.278 1805.61 769.781 1811.02 766.224 1815.73 761.607 1819.75 756.991 1823.76 751.442 1826.95 744.96 1829.29 738.479 1831.64 731.216 1832.81 723.173 1832.81 718.838 1832.81 714.774 1832.43 710.982 1831.65 707.19 1830.88 703.745 1829.92 700.646 1828.76 697.548 1827.6 694.89 1826.39 692.673 1825.13 690.455 1823.87 688.772 1822.66 687.622 1821.51 686.472 1820.36 685.897 1818.69 685.897 1816.49 685.897 1815.97 685.935 1815.4 686.01 1814.76 686.085 1814.12 686.228 1813.4 686.44 1812.6 686.653 1811.79 686.873 1811.04 687.102 1810.36 687.331 1809.67 687.674 1808.94 688.132 1808.18 688.591 1807.42 689.178 1806.77 689.896 1806.23 690.613 1805.69 691.464 1805.42 692.45 1805.42 694.018 1805.42 695.764 1806.05 697.689 1807.31 699.613 1808.56 701.829 1809.85 704.335 1811.18 706.842 1812.5 709.738 1813.7 713.023 1814.77 716.308 1815.84 720.229 1816.38 724.784 1816.38 729.981 1816.38 734.622 1815.64 738.707 1814.15 742.792 1812.66 746.222 1810.67 748.995 1808.16 751.769 1805.65 753.905 1802.73 755.405 1799.39 756.905 1796.06 757.655 1792.52 757.655 1788.77 757.655 1785.67 757.004 1782.93 755.702 1780.56 754.4 1778.18 752.693 1776.04 750.581 1774.12 748.469 1772.21 745.946 1770.38 743.011 1768.65 740.076 1766.92 737.085 1765.15 734.038 1763.34 730.992 1761.53 727.908 1759.56 724.788 1757.42 721.667 1755.27 718.885 1752.77 716.444 1749.91 714.002 1747.05 712.025 1743.78 710.511 1740.11 708.998 1736.44 708.241 1732.11 708.241 1727.11 708.241 1721.66 709.303 1716.45 711.426 1711.48 713.549 1706.51 716.604 1702.13 720.589 1698.33 724.574 1694.54 729.448 1691.51 735.209 1689.25 740.971 1686.99 747.45 1685.86 754.647 1685.86Z" stroke="#000000" stroke-width="3" stroke-linejoin="round" stroke-miterlimit="10" stroke-opacity="0" fill="#00B050" fill-rule="evenodd"/><text fill="#000000" fill-opacity="0" font-family="Arial,Arial_MSFontService,sans-serif" font-size="146.953" x="685.897" y="1814.44">Swiss</text><g filter="url(#fx6)" transform="translate(1183 1689)"><g><path d="M339.59 56.6752C335.738 56.6752 332.232 57.5975 329.069 59.4421 325.907 61.2868 323.079 63.7586 320.586 66.8576 318.093 69.9566 315.903 73.5687 314.015 77.6938 312.127 81.8189 310.592 86.0198 309.41 90.2965 308.228 94.5733 307.359 98.7641 306.802 102.869 306.245 106.974 305.967 110.697 305.967 114.038 305.967 117.337 306.249 120.329 306.812 123.012 307.375 125.696 308.25 127.959 309.437 129.802 310.624 131.644 312.118 133.076 313.92 134.098 315.722 135.119 318.013 135.63 320.791 135.63 324.73 135.63 328.752 134.536 332.858 132.349 336.963 130.161 340.811 127.068 344.4 123.069 347.989 119.071 351.199 114.257 354.031 108.629 356.862 103 358.971 96.8275 360.356 90.1102L364.297 71.5699C360.833 66.774 357.084 63.0925 353.05 60.5256 349.017 57.9586 344.53 56.6752 339.59 56.6752ZM227.871 56.6752C224.022 56.6752 220.502 57.6129 217.31 59.4883 214.119 61.3637 211.272 63.8738 208.769 67.0187 206.267 70.1636 204.09 73.7958 202.24 77.9153 200.39 82.0349 198.874 86.2333 197.692 90.5106 196.509 94.7878 195.64 98.979 195.083 103.084 194.527 107.189 194.248 110.84 194.248 114.038 194.248 116.712 194.448 119.347 194.847 121.946 195.247 124.544 196.001 126.857 197.109 128.884 198.217 130.911 199.706 132.542 201.574 133.777 203.442 135.013 205.942 135.63 209.072 135.63 213.011 135.63 217.033 134.536 221.139 132.349 225.244 130.161 229.092 127.068 232.681 123.069 236.27 119.071 239.48 114.257 242.312 108.629 245.144 103 247.252 96.8275 248.637 90.1102L252.578 71.5699C249.114 66.774 245.365 63.0925 241.332 60.5256 237.298 57.9586 232.812 56.6752 227.871 56.6752ZM340.772 41.4213C347.836 41.4213 353.77 42.8127 358.573 45.5956 363.377 48.3785 366.722 51.8211 368.609 55.9232L369.917 47.1079C370.29 45.3623 371.237 44.1751 372.756 43.5462 374.275 42.9174 376.217 42.6029 378.584 42.6029 379.721 42.6029 380.762 42.6737 381.707 42.8152 382.652 42.9568 383.514 43.276 384.294 43.7728 385.074 44.2696 385.571 44.8974 385.784 45.656 385.997 46.4147 386.068 46.9613 385.996 47.2959L364.441 154.865C363.319 160.403 361.486 165.279 358.943 169.493 356.399 173.707 353.182 177.193 349.292 179.951 345.401 182.709 340.877 184.784 335.719 186.177 330.562 187.57 324.87 188.267 318.643 188.267 312.633 188.267 307.062 187.598 301.931 186.259 296.8 184.92 292.45 183.107 288.882 180.82 288.08 180.285 287.396 179.53 286.832 178.555 286.268 177.581 285.986 176.378 285.986 174.947 285.986 174.45 286.007 173.847 286.049 173.137 286.091 172.428 286.187 171.757 286.336 171.125 286.484 170.493 286.701 169.798 286.984 169.042 287.268 168.285 287.635 167.582 288.085 166.932 288.534 166.282 289.147 165.718 289.922 165.242 290.698 164.765 291.57 164.527 292.539 164.527 293.818 164.527 295.198 165.007 296.679 165.968 298.16 166.928 299.943 167.904 302.029 168.896 304.115 169.887 306.684 170.785 309.737 171.591 312.789 172.396 316.617 172.798 321.221 172.798 325.103 172.798 328.529 172.402 331.499 171.61 334.469 170.818 337.051 169.632 339.243 168.052 341.436 166.472 343.242 164.46 344.662 162.017 346.082 159.573 347.2 156.275 348.014 152.121 349 146.945 350.008 142.299 351.037 138.183L351.732 135.542 349.347 137.948C347.782 139.351 346.096 140.703 344.288 142.002 340.673 144.6 336.674 146.73 332.294 148.392 327.913 150.053 323.434 150.884 318.858 150.884 313.14 150.884 308.298 149.932 304.334 148.027 300.369 146.122 297.167 143.523 294.726 140.232 292.286 136.94 290.559 133.119 289.547 128.768 288.534 124.417 288.027 119.722 288.027 114.683 288.027 110.543 288.405 105.942 289.159 100.879 289.913 95.817 291.158 90.5715 292.893 85.1428 294.629 79.7141 296.837 74.4101 299.519 69.2309 302.201 64.0518 305.502 59.3895 309.423 55.2443 313.344 51.099 317.915 47.7589 323.137 45.2238 328.359 42.6888 334.237 41.4213 340.772 41.4213ZM229.053 41.4213C236.117 41.4213 242.051 42.8127 246.855 45.5956 251.658 48.3785 255.004 51.8211 256.89 55.9232L258.198 47.1079C258.572 45.3623 259.518 44.1751 261.037 43.5462 262.556 42.9174 264.499 42.6029 266.865 42.6029 268.002 42.6029 269.043 42.6737 269.988 42.8152 270.933 42.9568 271.796 43.276 272.576 43.7728 273.355 44.2696 273.852 44.8974 274.065 45.656 274.278 46.4147 274.349 46.9546 274.277 47.2758L254.764 145.214C254.402 146.913 253.52 148.086 252.118 148.732 250.716 149.379 248.721 149.703 246.133 149.703 244.835 149.703 243.788 149.64 242.993 149.515 242.198 149.389 241.415 149.134 240.644 148.748 239.873 148.363 239.342 147.75 239.051 146.909 238.759 146.068 238.708 145.159 238.897 144.184L241.102 134.442 237.473 138.094C235.943 139.454 234.284 140.765 232.497 142.025 228.923 144.546 224.955 146.653 220.592 148.345 216.229 150.038 211.745 150.884 207.139 150.884 200.935 150.884 195.819 149.8 191.791 147.63 187.763 145.461 184.589 142.618 182.271 139.101 179.952 135.584 178.379 131.7 177.551 127.449 176.723 123.198 176.309 118.943 176.309 114.683 176.309 110.758 176.672 106.269 177.4 101.216 178.127 96.1631 179.325 90.971 180.993 85.6396 182.66 80.3083 184.821 75.0267 187.473 69.7949 190.126 64.5631 193.422 59.8265 197.363 55.585 201.304 51.3435 205.895 47.9225 211.134 45.322 216.373 42.7215 222.346 41.4213 229.053 41.4213ZM71.2144 41.4213C73.8171 41.4213 76.4073 41.63 78.9848 42.0473 81.5624 42.4647 83.9008 43.0046 86 43.6671 88.0992 44.3295 90.0507 45.1324 91.8545 46.0757 93.6582 47.019 94.9943 47.9248 95.8626 48.7931 97.1192 49.9356 97.7476 51.4887 97.7476 53.4525 97.7476 54.153 97.6393 55.0443 97.4228 56.1263 97.2063 57.2084 96.8851 58.2395 96.4593 59.2197 96.0336 60.2 95.4478 61.1489 94.702 62.0664 93.9562 62.984 92.9662 63.4428 91.7319 63.4428 90.4362 63.4428 89.1888 63.0562 87.9898 62.2829 86.7908 61.5097 85.3635 60.6828 83.708 59.8022 82.0525 58.9215 80.0965 58.1444 77.8401 57.4708 75.5837 56.7971 72.9096 56.4603 69.8179 56.4603 66.5907 56.4603 63.7639 56.9233 61.3374 57.8493 58.9109 58.7752 56.887 60.017 55.2656 61.5746 53.6442 63.1322 52.4236 64.9041 51.604 66.8903 50.7843 68.8765 50.3745 70.9142 50.3745 73.0033 50.3745 75.6284 51.2084 77.8521 52.8763 79.6744 54.5441 81.4966 56.7972 83.1866 59.6355 84.7442 62.4737 86.3018 65.5921 87.8317 68.9904 89.3339 72.3887 90.8362 75.6441 92.6881 78.7565 94.8897 81.869 97.0913 84.4874 99.7852 86.6118 102.971 88.7361 106.158 89.7983 110.169 89.7983 115.005 89.7983 120.174 88.7851 124.956 86.7586 129.353 84.7322 133.749 81.8259 137.554 78.0398 140.766 74.2538 143.979 69.7491 146.468 64.5257 148.235 59.3023 150.001 53.511 150.884 47.1519 150.884 43.7099 150.884 40.4713 150.603 37.4361 150.042 34.4008 149.48 31.6437 148.786 29.1646 147.959 26.6855 147.133 24.5236 146.182 22.679 145.105 20.8343 144.029 19.3822 142.961 18.3225 141.901 17.5806 141.159 17.0259 140.369 16.6583 139.529 16.2907 138.69 16.1069 137.713 16.1069 136.597 16.1069 135.867 16.1455 135.155 16.2228 134.459 16.3 133.763 16.4348 133.069 16.6273 132.377 16.8197 131.684 17.0519 130.976 17.3238 130.251 17.5957 129.526 17.9222 128.853 18.3032 128.234 18.6842 127.615 19.1855 127.063 19.8071 126.58 20.4287 126.097 21.1647 125.855 22.0151 125.855 23.4072 125.855 24.8143 126.441 26.2365 127.612 27.6587 128.784 29.2689 129.909 31.0671 130.988 32.8653 132.068 35.1687 133.075 37.9774 134.011 40.786 134.947 44.3097 135.415 48.5483 135.415 52.7781 135.415 56.3622 134.91 59.3006 133.898 62.239 132.887 64.656 131.545 66.5516 129.875 68.4471 128.204 69.8414 126.284 70.7343 124.115 71.6273 121.946 72.0737 119.661 72.0737 117.261 72.0737 114.543 71.2409 112.29 69.5753 110.501 67.9097 108.712 65.6709 107.029 62.859 105.451 60.047 103.874 56.9205 102.324 53.4797 100.803 50.0388 99.2817 46.7658 97.4421 43.6606 95.2841 40.5555 93.1262 37.9441 90.4588 35.8264 87.282 33.7087 84.1052 32.6499 80.026 32.6499 75.0443 32.6499 70.1208 33.6047 65.5971 35.5142 61.4731 37.4237 57.3491 40.1045 53.7913 43.5566 50.7997 47.0086 47.8081 51.1044 45.4972 55.8438 43.8668 60.5832 42.2365 65.7067 41.4213 71.2144 41.4213ZM143.402 16.4994C144.643 16.4994 145.782 16.5702 146.82 16.7117 147.858 16.8533 148.78 17.159 149.586 17.629 150.392 18.099 150.906 18.7267 151.127 19.5123 151.348 20.2978 151.423 20.8377 151.351 21.132L146.624 43.14 171.224 43.14C173.247 43.14 174.541 43.8299 175.105 45.2096 175.669 46.5893 175.951 47.7614 175.951 48.726 175.951 49.2899 175.905 49.9378 175.813 50.6696 175.721 51.4014 175.565 52.1 175.343 52.7652 175.122 53.4304 174.831 54.0772 174.472 54.7055 174.113 55.3338 173.694 55.914 173.216 56.4461 172.737 56.9781 172.15 57.4179 171.455 57.7653 170.759 58.1128 169.966 58.2865 169.076 58.2865L144.061 58.2865 132.66 114.465C132.326 116.782 132.046 118.897 131.819 120.809 131.592 122.722 131.478 124.368 131.478 125.747 131.478 129.355 132.08 131.868 133.285 133.287 134.489 134.706 136.644 135.415 139.75 135.415 141.611 135.415 143.264 135.248 144.709 134.912 146.153 134.576 147.376 134.22 148.38 133.844 149.384 133.467 150.384 133.062 151.381 132.628 152.378 132.195 153.299 131.978 154.144 131.978 155.378 131.978 156.367 132.391 157.111 133.217 157.854 134.044 158.226 135.17 158.226 136.597 158.226 137.323 158.136 138.181 157.956 139.171 157.776 140.161 157.571 141.054 157.343 141.852 157.115 142.65 156.79 143.447 156.369 144.244 155.948 145.041 155.448 145.728 154.871 146.305 154.192 146.985 153.236 147.571 152.003 148.063 150.771 148.556 149.348 149.007 147.736 149.414 146.125 149.821 144.587 150.132 143.122 150.347 141.658 150.562 140.14 150.669 138.568 150.669 134.428 150.669 130.849 150.225 127.832 149.336 124.816 148.447 122.243 146.999 120.114 144.993 117.985 142.986 116.429 140.527 115.444 137.614 114.46 134.701 113.968 131.283 113.968 127.359 113.968 126.41 114.008 125.358 114.087 124.204 114.167 123.05 114.292 121.945 114.463 120.889 114.635 119.833 114.81 118.747 114.989 117.63 115.168 116.512 115.407 115.239 115.707 113.81L127.289 58.2865 114.935 58.2865C113.592 58.2865 112.523 57.8882 111.726 57.0914 110.929 56.2947 110.531 54.9743 110.531 53.1303 110.531 51.9979 110.609 50.922 110.766 49.9026 110.922 48.8832 111.242 47.866 111.726 46.8511 112.209 45.8362 112.9 44.964 113.799 44.2344 114.697 43.5048 115.792 43.14 117.083 43.14L129.825 43.14 134.288 21.0715C134.403 20.3386 134.724 19.6432 135.25 18.9852 135.777 18.3273 136.435 17.8139 137.225 17.4452 138.015 17.0765 138.913 16.8267 139.92 16.6958 140.926 16.5649 142.087 16.4994 143.402 16.4994Z" stroke="#000000" stroke-width="3" stroke-linejoin="round" stroke-miterlimit="10" stroke-opacity="0" fill="#00B050" fill-rule="evenodd"/></g></g><path d="M1529.66 1738.6C1525.81 1738.6 1522.3 1739.53 1519.14 1741.37 1515.98 1743.22 1513.15 1745.69 1510.66 1748.79 1508.16 1751.89 1505.97 1755.5 1504.09 1759.62 1502.2 1763.75 1500.66 1767.95 1499.48 1772.23 1498.3 1776.5 1497.43 1780.69 1496.87 1784.8 1496.32 1788.9 1496.04 1792.63 1496.04 1795.97 1496.04 1799.27 1496.32 1802.26 1496.88 1804.94 1497.45 1807.63 1498.32 1809.89 1499.51 1811.73 1500.69 1813.57 1502.19 1815.01 1503.99 1816.03 1505.79 1817.05 1508.08 1817.56 1510.86 1817.56 1514.8 1817.56 1518.82 1816.47 1522.93 1814.28 1527.03 1812.09 1530.88 1809 1534.47 1805 1538.06 1801 1541.27 1796.19 1544.1 1790.56 1546.93 1784.93 1549.04 1778.76 1550.43 1772.04L1554.37 1753.5C1550.9 1748.7 1547.15 1745.02 1543.12 1742.46 1539.09 1739.89 1534.6 1738.6 1529.66 1738.6ZM1417.94 1738.6C1414.09 1738.6 1410.57 1739.54 1407.38 1741.42 1404.19 1743.29 1401.34 1745.8 1398.84 1748.95 1396.34 1752.09 1394.16 1755.73 1392.31 1759.84 1390.46 1763.96 1388.94 1768.16 1387.76 1772.44 1386.58 1776.72 1385.71 1780.91 1385.15 1785.01 1384.6 1789.12 1384.32 1792.77 1384.32 1795.97 1384.32 1798.64 1384.52 1801.28 1384.92 1803.88 1385.32 1806.47 1386.07 1808.79 1387.18 1810.81 1388.29 1812.84 1389.78 1814.47 1391.64 1815.71 1393.51 1816.94 1396.01 1817.56 1399.14 1817.56 1403.08 1817.56 1407.1 1816.47 1411.21 1814.28 1415.31 1812.09 1419.16 1809 1422.75 1805 1426.34 1801 1429.55 1796.19 1432.38 1790.56 1435.21 1784.93 1437.32 1778.76 1438.71 1772.04L1442.65 1753.5C1439.18 1748.7 1435.44 1745.02 1431.4 1742.46 1427.37 1739.89 1422.88 1738.6 1417.94 1738.6ZM1530.84 1723.35C1537.91 1723.35 1543.84 1724.74 1548.64 1727.53 1553.45 1730.31 1556.79 1733.75 1558.68 1737.85L1559.99 1729.04C1560.36 1727.29 1561.31 1726.1 1562.83 1725.48 1564.35 1724.85 1566.29 1724.53 1568.65 1724.53 1569.79 1724.53 1570.83 1724.6 1571.78 1724.74 1572.72 1724.89 1573.58 1725.21 1574.36 1725.7 1575.14 1726.2 1575.64 1726.83 1575.85 1727.59 1576.07 1728.34 1576.14 1728.89 1576.07 1729.23L1554.51 1836.8C1553.39 1842.33 1551.56 1847.21 1549.01 1851.42 1546.47 1855.64 1543.25 1859.12 1539.36 1861.88 1535.47 1864.64 1530.95 1866.71 1525.79 1868.11 1520.63 1869.5 1514.94 1870.2 1508.71 1870.2 1502.7 1870.2 1497.13 1869.53 1492 1868.19 1486.87 1866.85 1482.52 1865.04 1478.95 1862.75 1478.15 1862.21 1477.47 1861.46 1476.9 1860.48 1476.34 1859.51 1476.06 1858.31 1476.06 1856.88 1476.06 1856.38 1476.08 1855.78 1476.12 1855.07 1476.16 1854.36 1476.26 1853.69 1476.41 1853.05 1476.55 1852.42 1476.77 1851.73 1477.05 1850.97 1477.34 1850.22 1477.71 1849.51 1478.16 1848.86 1478.6 1848.21 1479.22 1847.65 1479.99 1847.17 1480.77 1846.69 1481.64 1846.46 1482.61 1846.46 1483.89 1846.46 1485.27 1846.94 1486.75 1847.9 1488.23 1848.86 1490.01 1849.83 1492.1 1850.83 1494.19 1851.82 1496.75 1852.72 1499.81 1853.52 1502.86 1854.33 1506.69 1854.73 1511.29 1854.73 1515.17 1854.73 1518.6 1854.33 1521.57 1853.54 1524.54 1852.75 1527.12 1851.56 1529.31 1849.98 1531.51 1848.4 1533.31 1846.39 1534.73 1843.95 1536.15 1841.5 1537.27 1838.2 1538.08 1834.05 1539.07 1828.87 1540.08 1824.23 1541.11 1820.11L1541.8 1817.47 1539.42 1819.88C1537.85 1821.28 1536.17 1822.63 1534.36 1823.93 1530.74 1826.53 1526.74 1828.66 1522.36 1830.32 1517.98 1831.98 1513.5 1832.81 1508.93 1832.81 1503.21 1832.81 1498.37 1831.86 1494.4 1829.96 1490.44 1828.05 1487.24 1825.45 1484.8 1822.16 1482.36 1818.87 1480.63 1815.05 1479.62 1810.7 1478.6 1806.35 1478.1 1801.65 1478.1 1796.61 1478.1 1792.47 1478.47 1787.87 1479.23 1782.81 1479.98 1777.75 1481.23 1772.5 1482.96 1767.07 1484.7 1761.64 1486.91 1756.34 1489.59 1751.16 1492.27 1745.98 1495.57 1741.32 1499.49 1737.17 1503.41 1733.03 1507.99 1729.69 1513.21 1727.15 1518.43 1724.62 1524.31 1723.35 1530.84 1723.35ZM1419.12 1723.35C1426.19 1723.35 1432.12 1724.74 1436.93 1727.53 1441.73 1730.31 1445.07 1733.75 1446.96 1737.85L1448.27 1729.04C1448.64 1727.29 1449.59 1726.1 1451.11 1725.48 1452.63 1724.85 1454.57 1724.53 1456.94 1724.53 1458.07 1724.53 1459.11 1724.6 1460.06 1724.74 1461 1724.89 1461.87 1725.21 1462.65 1725.7 1463.43 1726.2 1463.92 1726.83 1464.14 1727.59 1464.35 1728.34 1464.42 1728.88 1464.35 1729.21L1444.83 1827.14C1444.47 1828.84 1443.59 1830.02 1442.19 1830.66 1440.79 1831.31 1438.79 1831.63 1436.2 1831.63 1434.91 1831.63 1433.86 1831.57 1433.06 1831.44 1432.27 1831.32 1431.49 1831.06 1430.71 1830.68 1429.94 1830.29 1429.41 1829.68 1429.12 1828.84 1428.83 1828 1428.78 1827.09 1428.97 1826.11L1431.17 1816.37 1427.54 1820.02C1426.01 1821.38 1424.35 1822.69 1422.57 1823.95 1418.99 1826.48 1415.03 1828.58 1410.66 1830.28 1406.3 1831.97 1401.81 1832.81 1397.21 1832.81 1391.01 1832.81 1385.89 1831.73 1381.86 1829.56 1377.83 1827.39 1374.66 1824.55 1372.34 1821.03 1370.02 1817.51 1368.45 1813.63 1367.62 1809.38 1366.79 1805.13 1366.38 1800.87 1366.38 1796.61 1366.38 1792.69 1366.74 1788.2 1367.47 1783.15 1368.2 1778.09 1369.4 1772.9 1371.06 1767.57 1372.73 1762.24 1374.89 1756.96 1377.54 1751.72 1380.2 1746.49 1383.49 1741.76 1387.43 1737.51 1391.37 1733.27 1395.96 1729.85 1401.2 1727.25 1406.44 1724.65 1412.42 1723.35 1419.12 1723.35ZM1261.28 1723.35C1263.89 1723.35 1266.48 1723.56 1269.06 1723.98 1271.63 1724.39 1273.97 1724.93 1276.07 1725.6 1278.17 1726.26 1280.12 1727.06 1281.92 1728.01 1283.73 1728.95 1285.06 1729.85 1285.93 1730.72 1287.19 1731.87 1287.82 1733.42 1287.82 1735.38 1287.82 1736.08 1287.71 1736.97 1287.49 1738.06 1287.28 1739.14 1286.96 1740.17 1286.53 1741.15 1286.1 1742.13 1285.52 1743.08 1284.77 1744 1284.03 1744.91 1283.04 1745.37 1281.8 1745.37 1280.51 1745.37 1279.26 1744.99 1278.06 1744.21 1276.86 1743.44 1275.43 1742.61 1273.78 1741.73 1272.12 1740.85 1270.17 1740.07 1267.91 1739.4 1265.65 1738.73 1262.98 1738.39 1259.89 1738.39 1256.66 1738.39 1253.83 1738.85 1251.41 1739.78 1248.98 1740.7 1246.96 1741.95 1245.34 1743.5 1243.71 1745.06 1242.49 1746.83 1241.67 1748.82 1240.85 1750.81 1240.44 1752.84 1240.44 1754.93 1240.44 1757.56 1241.28 1759.78 1242.95 1761.6 1244.61 1763.43 1246.87 1765.12 1249.71 1766.67 1252.54 1768.23 1255.66 1769.76 1259.06 1771.26 1262.46 1772.77 1265.71 1774.62 1268.83 1776.82 1271.94 1779.02 1274.56 1781.71 1276.68 1784.9 1278.81 1788.09 1279.87 1792.1 1279.87 1796.93 1279.87 1802.1 1278.86 1806.89 1276.83 1811.28 1274.8 1815.68 1271.9 1819.48 1268.11 1822.7 1264.32 1825.91 1259.82 1828.4 1254.6 1830.16 1249.37 1831.93 1243.58 1832.81 1237.22 1832.81 1233.78 1832.81 1230.54 1832.53 1227.51 1831.97 1224.47 1831.41 1221.71 1830.72 1219.23 1829.89 1216.76 1829.06 1214.59 1828.11 1212.75 1827.03 1210.9 1825.96 1209.45 1824.89 1208.39 1823.83 1207.65 1823.09 1207.1 1822.3 1206.73 1821.46 1206.36 1820.62 1206.18 1819.64 1206.18 1818.53 1206.18 1817.8 1206.22 1817.08 1206.29 1816.39 1206.37 1815.69 1206.51 1815 1206.7 1814.31 1206.89 1813.61 1207.12 1812.91 1207.39 1812.18 1207.67 1811.46 1207.99 1810.78 1208.37 1810.16 1208.75 1809.54 1209.26 1808.99 1209.88 1808.51 1210.5 1808.03 1211.24 1807.78 1212.09 1807.78 1213.48 1807.78 1214.88 1808.37 1216.31 1809.54 1217.73 1810.71 1219.34 1811.84 1221.14 1812.92 1222.94 1814 1225.24 1815.01 1228.05 1815.94 1230.86 1816.88 1234.38 1817.35 1238.62 1817.35 1242.85 1817.35 1246.43 1816.84 1249.37 1815.83 1252.31 1814.82 1254.73 1813.48 1256.62 1811.8 1258.52 1810.13 1259.91 1808.21 1260.8 1806.04 1261.7 1803.88 1262.14 1801.59 1262.14 1799.19 1262.14 1796.47 1261.31 1794.22 1259.65 1792.43 1257.98 1790.64 1255.74 1788.96 1252.93 1787.38 1250.12 1785.8 1246.99 1784.25 1243.55 1782.73 1240.11 1781.21 1236.84 1779.37 1233.73 1777.21 1230.63 1775.06 1228.01 1772.39 1225.9 1769.21 1223.78 1766.03 1222.72 1761.96 1222.72 1756.97 1222.72 1752.05 1223.68 1747.53 1225.58 1743.4 1227.49 1739.28 1230.17 1735.72 1233.63 1732.73 1237.08 1729.74 1241.17 1727.43 1245.91 1725.8 1250.65 1724.17 1255.78 1723.35 1261.28 1723.35ZM1333.47 1698.43C1334.71 1698.43 1335.85 1698.5 1336.89 1698.64 1337.93 1698.78 1338.85 1699.09 1339.66 1699.56 1340.46 1700.03 1340.98 1700.66 1341.2 1701.44 1341.42 1702.23 1341.49 1702.77 1341.42 1703.06L1336.69 1725.07 1361.29 1725.07C1363.32 1725.07 1364.61 1725.76 1365.18 1727.14 1365.74 1728.52 1366.02 1729.69 1366.02 1730.66 1366.02 1731.22 1365.98 1731.87 1365.88 1732.6 1365.79 1733.33 1365.64 1734.03 1365.41 1734.69 1365.19 1735.36 1364.9 1736.01 1364.54 1736.64 1364.18 1737.26 1363.76 1737.84 1363.29 1738.38 1362.81 1738.91 1362.22 1739.35 1361.53 1739.7 1360.83 1740.04 1360.04 1740.22 1359.15 1740.22L1334.13 1740.22 1322.73 1796.39C1322.4 1798.71 1322.12 1800.83 1321.89 1802.74 1321.66 1804.65 1321.55 1806.3 1321.55 1807.68 1321.55 1811.28 1322.15 1813.8 1323.36 1815.22 1324.56 1816.64 1326.71 1817.35 1329.82 1817.35 1331.68 1817.35 1333.33 1817.18 1334.78 1816.84 1336.22 1816.51 1337.45 1816.15 1338.45 1815.77 1339.45 1815.4 1340.45 1814.99 1341.45 1814.56 1342.45 1814.12 1343.37 1813.91 1344.21 1813.91 1345.45 1813.91 1346.44 1814.32 1347.18 1815.15 1347.92 1815.97 1348.3 1817.1 1348.3 1818.53 1348.3 1819.25 1348.21 1820.11 1348.03 1821.1 1347.85 1822.09 1347.64 1822.98 1347.41 1823.78 1347.19 1824.58 1346.86 1825.38 1346.44 1826.17 1346.02 1826.97 1345.52 1827.66 1344.94 1828.23 1344.26 1828.91 1343.31 1829.5 1342.07 1829.99 1340.84 1830.49 1339.42 1830.94 1337.81 1831.34 1336.2 1831.75 1334.66 1832.06 1333.19 1832.28 1331.73 1832.49 1330.21 1832.6 1328.64 1832.6 1324.5 1832.6 1320.92 1832.15 1317.9 1831.27 1314.89 1830.38 1312.31 1828.93 1310.18 1826.92 1308.06 1824.92 1306.5 1822.46 1305.51 1819.54 1304.53 1816.63 1304.04 1813.21 1304.04 1809.29 1304.04 1808.34 1304.08 1807.29 1304.16 1806.13 1304.24 1804.98 1304.36 1803.87 1304.53 1802.82 1304.71 1801.76 1304.88 1800.68 1305.06 1799.56 1305.24 1798.44 1305.48 1797.17 1305.78 1795.74L1317.36 1740.22 1305.01 1740.22C1303.66 1740.22 1302.59 1739.82 1301.8 1739.02 1301 1738.22 1300.6 1736.9 1300.6 1735.06 1300.6 1733.93 1300.68 1732.85 1300.84 1731.83 1300.99 1730.81 1301.31 1729.8 1301.8 1728.78 1302.28 1727.77 1302.97 1726.89 1303.87 1726.16 1304.77 1725.43 1305.86 1725.07 1307.15 1725.07L1319.9 1725.07 1324.36 1703C1324.47 1702.27 1324.79 1701.57 1325.32 1700.91 1325.85 1700.26 1326.51 1699.74 1327.3 1699.37 1328.09 1699.01 1328.98 1698.76 1329.99 1698.63 1331 1698.49 1332.16 1698.43 1333.47 1698.43Z" stroke="#000000" stroke-width="3" stroke-linejoin="round" stroke-miterlimit="10" stroke-opacity="0" fill="#00B050" fill-rule="evenodd"/><text fill="#000000" fill-opacity="0" font-family="Arial,Arial_MSFontService,sans-serif" font-size="171.768" x="1206.18" y="1848.73">stag</text><g filter="url(#fx7)" transform="translate(1566 1714)"><g><path d="M73.8948 31.6752C69.0731 31.6752 64.7706 32.5122 60.9874 34.1862 57.2041 35.8602 53.8687 38.1073 50.9812 40.9277 48.0937 43.7481 45.5992 47.0701 43.4977 50.8936 41.3963 54.7172 39.7122 57.8358 38.4456 60.2494L48.1135 60.2494C56.6827 60.2494 63.6785 59.7517 69.1011 58.7564 74.5236 57.7611 78.8048 56.437 81.9447 54.7843 85.0845 53.1316 87.2492 51.3141 88.4387 49.3318 89.6282 47.3495 90.2229 45.2596 90.2229 43.0619 90.2229 39.6927 88.8463 36.9526 86.093 34.8416 83.3398 32.7307 79.2737 31.6752 73.8948 31.6752ZM74.8616 16.4213C80.7362 16.4213 85.8018 17.2146 90.0584 18.8013 94.315 20.3881 97.7844 22.4056 100.467 24.8539 103.149 27.3022 105.102 30.0272 106.326 33.0289 107.55 36.0305 108.162 38.9094 108.162 41.6654 108.162 46.8429 106.938 51.5116 104.488 55.6714 102.039 59.8312 98.2339 63.3529 93.0738 66.2365 87.9136 69.1201 81.4459 71.3139 73.6707 72.8177 65.8955 74.3217 56.5887 75.0736 45.7502 75.0736L35.2598 75.0736C34.9957 76.5081 34.7624 78.4412 34.5599 80.8727 34.3574 83.3043 34.2561 85.7039 34.2561 88.0717 34.2561 95.4569 35.9623 101.063 39.3746 104.89 42.7869 108.717 48.4929 110.63 56.4924 110.63 60.9717 110.63 64.8859 110.312 68.235 109.676 71.5841 109.04 74.6053 108.316 77.2987 107.504 79.9921 106.692 82.1682 105.936 83.8271 105.236 85.486 104.535 86.7227 104.185 87.5373 104.185 89.0166 104.185 90.031 104.695 90.5804 105.716 91.1298 106.736 91.4045 107.766 91.4045 108.804 91.4045 109.309 91.3438 109.946 91.2224 110.716 91.101 111.486 90.9178 112.3 90.6727 113.159 90.4277 114.018 90.0797 114.92 89.6287 115.867 89.1778 116.814 88.6155 117.624 87.9419 118.297 86.899 119.34 85.2087 120.318 82.8712 121.229 80.5337 122.14 77.8965 122.926 74.9598 123.587 72.023 124.248 68.8476 124.796 65.4336 125.231 62.0196 125.667 58.5737 125.884 55.0959 125.884 48.6987 125.884 43.0683 125.105 38.2047 123.548 33.3411 121.99 29.2758 119.636 26.009 116.484 22.7421 113.332 20.31 109.417 18.7127 104.737 17.1153 100.058 16.3167 94.6457 16.3167 88.5013 16.3167 83.6942 16.769 78.6303 17.6737 73.3095 18.5784 67.9888 20.0087 62.653 21.9647 57.302 23.9207 51.9511 26.447 46.8239 29.5438 41.9205 32.6406 37.0172 36.3452 32.6881 40.6578 28.9334 44.9703 25.1787 49.9833 22.1546 55.6968 19.8613 61.4103 17.568 67.7986 16.4213 74.8616 16.4213Z" stroke="#000000" stroke-width="3" stroke-linejoin="round" stroke-miterlimit="10" stroke-opacity="0" fill="#00B050" fill-rule="evenodd"/></g></g><path d="M1646.97 1738.6C1642.14 1738.6 1637.84 1739.44 1634.06 1741.12 1630.27 1742.79 1626.94 1745.04 1624.05 1747.86 1621.16 1750.68 1618.67 1754 1616.57 1757.82 1614.47 1761.65 1612.78 1764.77 1611.52 1767.18L1621.18 1767.18C1629.75 1767.18 1636.75 1766.68 1642.17 1765.69 1647.59 1764.69 1651.88 1763.37 1655.02 1761.71 1658.15 1760.06 1660.32 1758.24 1661.51 1756.26 1662.7 1754.28 1663.29 1752.19 1663.29 1749.99 1663.29 1746.62 1661.92 1743.88 1659.16 1741.77 1656.41 1739.66 1652.34 1738.6 1646.97 1738.6ZM1647.93 1723.35C1653.81 1723.35 1658.87 1724.14 1663.13 1725.73 1667.39 1727.32 1670.85 1729.34 1673.54 1731.78 1676.22 1734.23 1678.17 1736.96 1679.4 1739.96 1680.62 1742.96 1681.23 1745.84 1681.23 1748.6 1681.23 1753.77 1680.01 1758.44 1677.56 1762.6 1675.11 1766.76 1671.3 1770.28 1666.14 1773.17 1660.98 1776.05 1654.52 1778.24 1646.74 1779.75 1638.97 1781.25 1629.66 1782 1618.82 1782L1608.33 1782C1608.07 1783.44 1607.83 1785.37 1607.63 1787.8 1607.43 1790.23 1607.33 1792.63 1607.33 1795 1607.33 1802.39 1609.03 1807.99 1612.44 1811.82 1615.86 1815.65 1621.56 1817.56 1629.56 1817.56 1634.04 1817.56 1637.96 1817.24 1641.31 1816.61 1644.65 1815.97 1647.68 1815.25 1650.37 1814.43 1653.06 1813.62 1655.24 1812.87 1656.9 1812.17 1658.56 1811.46 1659.79 1811.11 1660.61 1811.11 1662.09 1811.11 1663.1 1811.62 1663.65 1812.65 1664.2 1813.67 1664.47 1814.7 1664.47 1815.73 1664.47 1816.24 1664.41 1816.88 1664.29 1817.65 1664.17 1818.42 1663.99 1819.23 1663.74 1820.09 1663.5 1820.95 1663.15 1821.85 1662.7 1822.8 1662.25 1823.74 1661.69 1824.55 1661.01 1825.23 1659.97 1826.27 1658.28 1827.25 1655.94 1828.16 1653.6 1829.07 1650.97 1829.86 1648.03 1830.52 1645.09 1831.18 1641.92 1831.73 1638.5 1832.16 1635.09 1832.6 1631.64 1832.81 1628.17 1832.81 1621.77 1832.81 1616.14 1832.04 1611.28 1830.48 1606.41 1828.92 1602.35 1826.57 1599.08 1823.41 1595.81 1820.26 1593.38 1816.35 1591.78 1811.67 1590.19 1806.99 1589.39 1801.58 1589.39 1795.43 1589.39 1790.62 1589.84 1785.56 1590.74 1780.24 1591.65 1774.92 1593.08 1769.58 1595.04 1764.23 1596.99 1758.88 1599.52 1753.75 1602.61 1748.85 1605.71 1743.95 1609.42 1739.62 1613.73 1735.86 1618.04 1732.11 1623.05 1729.08 1628.77 1726.79 1634.48 1724.5 1640.87 1723.35 1647.93 1723.35Z" stroke="#000000" stroke-width="3" stroke-linejoin="round" stroke-miterlimit="10" stroke-opacity="0" fill="#00B050" fill-rule="evenodd"/><text fill="#000000" fill-opacity="0" font-family="Arial,Arial_MSFontService,sans-serif" font-size="109.463" x="1589.39" y="1819.13">e</text><g clip-path="url(#clip10)"><g filter="url(#fx8)" transform="matrix(2 0 0 2 419 406)"><g><path d="M23.16 196C23.16 100.654 99.8715 23.3601 194.5 23.3601 289.128 23.3601 365.84 100.654 365.84 196 365.84 291.346 289.128 368.64 194.5 368.64 99.8715 368.64 23.16 291.346 23.16 196Z" stroke="#7F7F7F" stroke-width="4" stroke-miterlimit="8" fill="#FFFEFE" fill-rule="evenodd"/></g></g></g><path d="M478.5 770.5C478.5 587.142 626.022 438.5 808 438.5 989.978 438.5 1137.5 587.142 1137.5 770.5 1137.5 953.858 989.978 1102.5 808 1102.5 626.022 1102.5 478.5 953.858 478.5 770.5Z" stroke="#7F7F7F" stroke-width="6.875" stroke-miterlimit="8" fill="#FFFEFE" fill-rule="evenodd"/><g clip-path="url(#clip11)"><g filter="url(#fx9)" transform="matrix(1.99744 0 0 2 1141 406)"><g clip-path="url(#clip12)" transform="translate(1.13687e-13 0)"><path d="M23.1796 196C23.1796 100.654 100.106 23.3601 195 23.3601 289.894 23.3601 366.82 100.654 366.82 196 366.82 291.346 289.894 368.64 195 368.64 100.106 368.64 23.1796 291.346 23.1796 196Z" stroke="#7F7F7F" stroke-width="4" stroke-miterlimit="8" fill-rule="evenodd"/></g></g></g><path d="M1200.5 770.5C1200.5 587.142 1348.25 438.5 1530.5 438.5 1712.75 438.5 1860.5 587.142 1860.5 770.5 1860.5 953.858 1712.75 1102.5 1530.5 1102.5 1348.25 1102.5 1200.5 953.858 1200.5 770.5Z" stroke="#7F7F7F" stroke-width="6.875" stroke-miterlimit="8" fill-rule="evenodd"/></g></svg>